# xmcd
#
# Track frame offsets:
#	150
#	17050
#	33400
#	56817
#	76397
#	94310
#	113142
#	128887
#	146157
#	159247
#	184872
#	202732
#	224950
#
# Disc length: 3166 seconds
#
# Revision: 3
# Processed by: cddbd v1.5.2PL0 Copyright (c) Steve Scherf et al.
# Submitted via: EasyCDDAExtractor 15.3.0.1
#
DISCID=bc0c5c0d
DTITLE=Thalia - Love
DYEAR=1992
DGENRE=Latin
TTITLE0=A La Orilla Del Mar
TTITLE1=Sangre
TTITLE2=La Vie En Rose (La Vida En Rosa)
TTITLE3=Love
TTITLE4=El Dia Del Amor
TTITLE5=Flor De Juventud
TTITLE6=El Bronceador
TTITLE7=No Es El Momento
TTITLE8=Cien Años
TTITLE9=Flores Secas En La Piel
TTITLE10=No Trates De Egañarme
TTITLE11=Dejame Escapar
TTITLE12=Maria Mercedes
EXTD=
EXTT0=
EXTT1=
EXTT2=
EXTT3=
EXTT4=
EXTT5=
EXTT6=
EXTT7=
EXTT8=
EXTT9=
EXTT10=
EXTT11=
EXTT12=
PLAYORDER=
